<?xml version="1.0" encoding="utf-8"?>
<!-- Generator: Adobe Illustrator 16.0.4, SVG Export Plug-In . SVG Version: 6.00 Build 0)  -->
<!DOCTYPE svg PUBLIC "-//W3C//DTD SVG 1.1//EN" "http://www.w3.org/Graphics/SVG/1.1/DTD/svg11.dtd">
<svg version="1.1" id="Layer_1" xmlns="http://www.w3.org/2000/svg" xmlns:xlink="http://www.w3.org/1999/xlink" x="0px" y="0px"
	 width="200px" height="100px" viewBox="0 0 200 100" enable-background="new 0 0 200 100" xml:space="preserve">
<g display="none">
	<g display="inline">
		<g>
			<path fill="#FAFAFA" d="M46.033,92.5c-0.845,0-1.533-0.688-1.533-1.533V63.036c0-0.847,0.688-1.536,1.533-1.536h67.441
				c0.849,0,1.537,0.689,1.537,1.536v27.931c0,0.846-0.688,1.533-1.537,1.533H46.033z"/>
			<path fill="#FAFAFA" d="M113.475,62c0.571,0,1.037,0.465,1.037,1.036v27.931c0,0.572-0.466,1.033-1.037,1.033H46.033
				C45.461,92,45,91.539,45,90.967V63.036C45,62.465,45.461,62,46.033,62H113.475 M113.475,61H46.033C44.912,61,44,61.913,44,63.036
				v27.931C44,92.088,44.912,93,46.033,93h67.441c1.123,0,2.037-0.912,2.037-2.033V63.036C115.512,61.913,114.598,61,113.475,61
				L113.475,61z"/>
		</g>
	</g>
</g>
<g display="none">
	<path display="inline" fill="#333333" d="M90.096,85.908"/>
	<g display="inline">
		<circle fill="#333333" cx="102.717" cy="82.896" r="2.949"/>
		<circle fill="#333333" cx="93.72" cy="82.896" r="2.949"/>
		<path fill="#333333" d="M68.057,80.016c-0.164,0-0.3,0.135-0.3,0.303V85.7c0,0.166,0.136,0.305,0.3,0.305h18.274
			c0.167,0,0.302-0.139,0.302-0.305v-5.382c0-0.168-0.135-0.303-0.302-0.303H68.057z M74.065,83.861h-3.31
			c-0.498,0-0.897-0.402-0.897-0.896s0.398-0.896,0.897-0.896h3.31c0.495,0,0.896,0.404,0.896,0.896
			C74.961,83.458,74.561,83.861,74.065,83.861z M83.686,83.861h-3.31c-0.497,0-0.898-0.402-0.898-0.896s0.402-0.896,0.898-0.896
			h3.307c0.495,0,0.899,0.404,0.899,0.896C84.582,83.458,84.181,83.861,83.686,83.861z"/>
		<path fill="#333333" d="M87.049,69.852c0,0.284-0.229,0.514-0.51,0.514H67.851c-0.279,0-0.509-0.229-0.509-0.514v-2.679H47.483
			v22.14h19.859v-1.184c0-0.281,0.23-0.508,0.509-0.508h18.688c0.281,0,0.51,0.227,0.51,0.508v1.184h24.961v-22.14H87.049V69.852z
			 M67.342,71.839c0-0.282,0.23-0.509,0.509-0.509h18.688c0.281,0,0.51,0.227,0.51,0.509v2.187c0,0.281-0.229,0.515-0.51,0.515
			H67.851c-0.279,0-0.509-0.229-0.509-0.515V71.839L67.342,71.839z M67.342,75.904c0-0.28,0.23-0.506,0.509-0.506h18.688
			c0.281,0,0.51,0.226,0.51,0.506v2.188c0,0.281-0.229,0.512-0.51,0.512H67.851c-0.279,0-0.509-0.229-0.509-0.512V75.904
			L67.342,75.904z M62.908,81.504h-3.91v3.907H55.2v-3.907h-3.91v-3.802h3.91v-3.906h3.798v3.906h3.91V81.504z M98.841,79.318
			c0-0.164,0.135-0.301,0.302-0.301h7.154c0.167,0,0.303,0.137,0.303,0.301v7.156c0,0.166-0.136,0.301-0.303,0.301h-7.154
			c-0.167,0-0.302-0.135-0.302-0.301V79.318L98.841,79.318z M89.841,79.318c0-0.164,0.135-0.301,0.302-0.301h7.154
			c0.167,0,0.304,0.137,0.304,0.301v7.156c0,0.166-0.137,0.301-0.304,0.301h-7.154c-0.167,0-0.302-0.135-0.302-0.301V79.318z
			 M87.461,80.318v5.379c0,0.623-0.506,1.131-1.13,1.131H68.057c-0.62,0-1.128-0.508-1.128-1.131v-5.379
			c0-0.621,0.507-1.129,1.128-1.129h18.274C86.955,79.189,87.461,79.697,87.461,80.318z"/>
		<path fill="#333333" d="M113.475,62H46.033C45.461,62,45,62.465,45,63.036v27.931C45,91.539,45.461,92,46.033,92h67.441
			c0.569,0,1.037-0.461,1.037-1.033V63.036C114.512,62.465,114.046,62,113.475,62z M112.836,89.312c0,0.457-0.369,0.826-0.826,0.826
			H47.483c-0.46,0-0.828-0.369-0.828-0.826V67.172c0-0.457,0.368-0.826,0.828-0.826h64.527c0.457,0,0.826,0.369,0.826,0.826V89.312z
			"/>
	</g>
</g>
<g>
	<g>
		<path fill="#333333" d="M91.749,81.5h-53c-1.104,0-2-0.895-2-2v-53c0-1.104,0.896-2,2-2h27c1.104,0,2,0.896,2,2s-0.896,2-2,2h-25
			v49h49v-26c0-1.104,0.896-2,2-2s2,0.896,2,2v28C93.749,80.605,92.854,81.5,91.749,81.5z"/>
	</g>
	<g>
		<path fill="#333333" d="M88.279,22l8.483,8.486L62.3,64.949l-12.027,2.918l3.543-11.404L88.279,22 M88.279,18
			c-1.062,0-2.078,0.421-2.828,1.172L50.987,53.635c-0.459,0.457-0.799,1.021-0.992,1.641L46.452,66.68
			c-0.427,1.375-0.082,2.875,0.904,3.924c0.765,0.816,1.824,1.266,2.916,1.266c0.313,0,0.63-0.037,0.942-0.113l12.028-2.918
			c0.714-0.174,1.366-0.539,1.885-1.061L99.59,33.316c1.562-1.562,1.562-4.094,0.001-5.656l-8.484-8.486
			C90.359,18.421,89.341,18,88.279,18L88.279,18z"/>
		<g>
			<path fill="#333333" d="M91.814,37.849c-0.256,0-0.512-0.098-0.707-0.293l-9.899-9.9c-0.392-0.391-0.392-1.023,0-1.414
				c0.391-0.391,1.022-0.391,1.414,0l9.899,9.9c0.392,0.391,0.392,1.023,0,1.414C92.326,37.751,92.07,37.849,91.814,37.849z"/>
		</g>
		<g>
			<path fill="#333333" d="M63.58,66.084c-0.256,0-0.512-0.098-0.707-0.293l-9.899-9.9c-0.391-0.391-0.391-1.021,0-1.414
				c0.392-0.391,1.023-0.391,1.414,0l9.899,9.9c0.391,0.391,0.391,1.023,0,1.414C64.091,65.986,63.836,66.084,63.58,66.084z"/>
		</g>
		<g>
			<path fill="#333333" d="M56.509,68.912c-0.256,0-0.512-0.098-0.707-0.293l-5.657-5.656c-0.392-0.391-0.392-1.023,0-1.414
				c0.391-0.391,1.022-0.391,1.413,0l5.658,5.656c0.392,0.391,0.392,1.023,0,1.414C57.021,68.814,56.765,68.912,56.509,68.912z"/>
		</g>
		<g>
			<path fill="#333333" d="M56.509,59.012c-0.256,0-0.512-0.098-0.707-0.293c-0.391-0.391-0.391-1.023,0-1.414l28.233-28.233
				c0.392-0.391,1.023-0.391,1.414,0c0.392,0.391,0.392,1.023,0,1.414L57.216,58.719C57.021,58.914,56.765,59.012,56.509,59.012z"/>
		</g>
		<g>
			<path fill="#333333" d="M60.752,63.256c-0.256,0-0.512-0.098-0.707-0.293c-0.391-0.391-0.391-1.023,0-1.414l28.234-28.235
				c0.392-0.391,1.023-0.391,1.414,0c0.392,0.391,0.392,1.023,0,1.414L61.459,62.963C61.263,63.158,61.007,63.256,60.752,63.256z"/>
		</g>
	</g>
	<g>
		<path fill="#333333" d="M82.749,71.5h-14c-0.553,0-1-0.447-1-1s0.447-1,1-1h14c0.553,0,1,0.447,1,1S83.302,71.5,82.749,71.5z"/>
	</g>
	<g>
		<path fill="#333333" d="M82.749,65.5h-9c-0.554,0-1-0.447-1-1s0.446-1,1-1h9c0.553,0,1,0.447,1,1S83.302,65.5,82.749,65.5z"/>
	</g>
	<g>
		<path fill="#333333" d="M82.749,60.5h-4c-0.554,0-1-0.447-1-1s0.446-1,1-1h4c0.553,0,1,0.447,1,1S83.302,60.5,82.749,60.5z"/>
	</g>
</g>
<g>
	<g>
		<path fill="#333333" d="M146.251,28v8h-23v-8H146.251 M146.582,26H123.27c-1.104,0-2.019,0.81-2.019,1.914v7.863
			c0,1.104,0.914,2.223,2.019,2.223h23.312c1.104,0,1.669-1.118,1.669-2.223v-7.863C148.251,26.81,147.688,26,146.582,26L146.582,26
			z"/>
	</g>
	<g>
		<path fill="#333333" d="M150.586,22l8.665,8.277V78h-42V22h33 M150.586,18h-33.812c-2.209,0-3.521,1.882-3.521,4.091v56
			c0,2.209,1.312,3.909,3.521,3.909h42c2.209,0,4.479-1.7,4.479-3.909V30.277c0-1.061-0.66-2.078-1.41-2.828l-8.308-8.232
			C152.783,18.467,151.646,18,150.586,18L150.586,18z"/>
	</g>
	<g>
		<path fill="#333333" d="M123.251,82h-15c-1.104,0-2-0.896-2-2V45c0-1.104,0.896-2,2-2s2,0.896,2,2v33h13c1.104,0,2,0.896,2,2
			S124.355,82,123.251,82z"/>
	</g>
	<g>
		<path fill="#333333" d="M158.251,32h-8c-0.553,0-1-0.447-1-1v-9c0-0.553,0.447-1,1-1c0.554,0,1,0.447,1,1v8h7c0.554,0,1,0.447,1,1
			S158.805,32,158.251,32z"/>
	</g>
	<g>
		<g>
			<path fill="#333333" d="M133.251,44h-10c-0.553,0-1-0.447-1-1s0.447-1,1-1h10c0.554,0,1,0.447,1,1S133.805,44,133.251,44z"/>
		</g>
		<g>
			<path fill="#333333" d="M150.251,44h-13c-0.553,0-1-0.447-1-1s0.447-1,1-1h13c0.554,0,1,0.447,1,1S150.805,44,150.251,44z"/>
		</g>
		<g>
			<path fill="#333333" d="M127.251,49h-4c-0.553,0-1-0.447-1-1s0.447-1,1-1h4c0.554,0,1,0.447,1,1S127.805,49,127.251,49z"/>
		</g>
		<g>
			<path fill="#333333" d="M138.251,49h-7c-0.553,0-1-0.447-1-1s0.447-1,1-1h7c0.554,0,1,0.447,1,1S138.805,49,138.251,49z"/>
		</g>
		<g>
			<path fill="#333333" d="M131.251,54h-8c-0.553,0-1-0.447-1-1s0.447-1,1-1h8c0.554,0,1,0.447,1,1S131.805,54,131.251,54z"/>
		</g>
		<g>
			<path fill="#333333" d="M150.251,54h-15c-0.553,0-1-0.447-1-1s0.447-1,1-1h15c0.554,0,1,0.447,1,1S150.805,54,150.251,54z"/>
		</g>
		<g>
			<path fill="#333333" d="M150.251,49h-7c-0.553,0-1-0.447-1-1s0.447-1,1-1h7c0.554,0,1,0.447,1,1S150.805,49,150.251,49z"/>
		</g>
		<g>
			<path fill="#333333" d="M142.251,74h-7c-0.553,0-1-0.447-1-1s0.447-1,1-1h7c0.554,0,1,0.447,1,1S142.805,74,142.251,74z"/>
		</g>
		<g>
			<path fill="#333333" d="M150.251,69h-8c-0.553,0-1-0.447-1-1s0.447-1,1-1h8c0.554,0,1,0.447,1,1S150.805,69,150.251,69z"/>
		</g>
		<g>
			<path fill="#333333" d="M138.251,69h-15c-0.553,0-1-0.447-1-1s0.447-1,1-1h15c0.554,0,1,0.447,1,1S138.805,69,138.251,69z"/>
		</g>
		<g>
			<path fill="#333333" d="M130.251,74h-7c-0.553,0-1-0.447-1-1s0.447-1,1-1h7c0.554,0,1,0.447,1,1S130.805,74,130.251,74z"/>
		</g>
		<g>
			<path fill="#333333" d="M129.251,59h-6c-0.553,0-1-0.447-1-1s0.447-1,1-1h6c0.554,0,1,0.447,1,1S129.805,59,129.251,59z"/>
		</g>
		<g>
			<path fill="#333333" d="M150.251,59h-17c-0.553,0-1-0.447-1-1s0.447-1,1-1h17c0.554,0,1,0.447,1,1S150.805,59,150.251,59z"/>
		</g>
		<g>
			<path fill="#333333" d="M136.251,64h-13c-0.553,0-1-0.447-1-1s0.447-1,1-1h13c0.554,0,1,0.447,1,1S136.805,64,136.251,64z"/>
		</g>
		<g>
			<path fill="#333333" d="M150.251,64h-10c-0.553,0-1-0.447-1-1s0.447-1,1-1h10c0.554,0,1,0.447,1,1S150.805,64,150.251,64z"/>
		</g>
	</g>
</g>
</svg>
