<?xml version="1.0" encoding="utf-8"?>
<!-- Generator: Adobe Illustrator 16.0.4, SVG Export Plug-In . SVG Version: 6.00 Build 0)  -->
<!DOCTYPE svg PUBLIC "-//W3C//DTD SVG 1.1//EN" "http://www.w3.org/Graphics/SVG/1.1/DTD/svg11.dtd">
<svg version="1.1" id="Layer_1" xmlns="http://www.w3.org/2000/svg" xmlns:xlink="http://www.w3.org/1999/xlink" x="0px" y="0px"
	 width="200px" height="100px" viewBox="0 0 200 100" enable-background="new 0 0 200 100" xml:space="preserve">
<g display="none">
	<g display="inline">
		<g>
			<path fill="#FAFAFA" d="M46.033,92.5c-0.845,0-1.533-0.688-1.533-1.533V63.036c0-0.847,0.688-1.536,1.533-1.536h67.441
				c0.849,0,1.537,0.689,1.537,1.536v27.931c0,0.846-0.688,1.533-1.537,1.533H46.033z"/>
			<path fill="#FAFAFA" d="M113.475,62c0.571,0,1.037,0.465,1.037,1.036v27.931c0,0.572-0.466,1.033-1.037,1.033H46.033
				C45.461,92,45,91.539,45,90.967V63.036C45,62.465,45.461,62,46.033,62H113.475 M113.475,61H46.033C44.912,61,44,61.913,44,63.036
				v27.931C44,92.088,44.912,93,46.033,93h67.441c1.123,0,2.037-0.912,2.037-2.033V63.036C115.512,61.913,114.598,61,113.475,61
				L113.475,61z"/>
		</g>
	</g>
</g>
<g display="none">
	<path display="inline" fill="#333333" d="M90.096,85.908"/>
	<g display="inline">
		<circle fill="#333333" cx="102.717" cy="82.896" r="2.949"/>
		<circle fill="#333333" cx="93.72" cy="82.896" r="2.949"/>
		<path fill="#333333" d="M68.057,80.016c-0.164,0-0.3,0.135-0.3,0.303V85.7c0,0.166,0.136,0.305,0.3,0.305h18.274
			c0.167,0,0.302-0.139,0.302-0.305v-5.382c0-0.168-0.135-0.303-0.302-0.303H68.057z M74.065,83.861h-3.31
			c-0.498,0-0.897-0.402-0.897-0.896s0.398-0.896,0.897-0.896h3.31c0.495,0,0.896,0.404,0.896,0.896
			C74.961,83.458,74.561,83.861,74.065,83.861z M83.686,83.861h-3.31c-0.497,0-0.898-0.402-0.898-0.896s0.402-0.896,0.898-0.896
			h3.307c0.495,0,0.899,0.404,0.899,0.896C84.582,83.458,84.181,83.861,83.686,83.861z"/>
		<path fill="#333333" d="M87.049,69.852c0,0.284-0.229,0.514-0.51,0.514H67.851c-0.279,0-0.509-0.229-0.509-0.514v-2.679H47.483
			v22.14h19.859v-1.184c0-0.281,0.23-0.508,0.509-0.508h18.688c0.281,0,0.51,0.227,0.51,0.508v1.184h24.961v-22.14H87.049V69.852z
			 M67.342,71.839c0-0.282,0.23-0.509,0.509-0.509h18.688c0.281,0,0.51,0.227,0.51,0.509v2.187c0,0.281-0.229,0.515-0.51,0.515
			H67.851c-0.279,0-0.509-0.229-0.509-0.515V71.839L67.342,71.839z M67.342,75.904c0-0.28,0.23-0.506,0.509-0.506h18.688
			c0.281,0,0.51,0.226,0.51,0.506v2.188c0,0.281-0.229,0.512-0.51,0.512H67.851c-0.279,0-0.509-0.229-0.509-0.512V75.904
			L67.342,75.904z M62.908,81.504h-3.91v3.907H55.2v-3.907h-3.91v-3.802h3.91v-3.906h3.798v3.906h3.91V81.504z M98.841,79.318
			c0-0.164,0.135-0.301,0.302-0.301h7.154c0.167,0,0.303,0.137,0.303,0.301v7.156c0,0.166-0.136,0.301-0.303,0.301h-7.154
			c-0.167,0-0.302-0.135-0.302-0.301V79.318L98.841,79.318z M89.841,79.318c0-0.164,0.135-0.301,0.302-0.301h7.154
			c0.167,0,0.304,0.137,0.304,0.301v7.156c0,0.166-0.137,0.301-0.304,0.301h-7.154c-0.167,0-0.302-0.135-0.302-0.301V79.318z
			 M87.461,80.318v5.379c0,0.623-0.506,1.131-1.13,1.131H68.057c-0.62,0-1.128-0.508-1.128-1.131v-5.379
			c0-0.621,0.507-1.129,1.128-1.129h18.274C86.955,79.189,87.461,79.697,87.461,80.318z"/>
		<path fill="#333333" d="M113.475,62H46.033C45.461,62,45,62.465,45,63.036v27.931C45,91.539,45.461,92,46.033,92h67.441
			c0.569,0,1.037-0.461,1.037-1.033V63.036C114.512,62.465,114.046,62,113.475,62z M112.836,89.312c0,0.457-0.369,0.826-0.826,0.826
			H47.483c-0.46,0-0.828-0.369-0.828-0.826V67.172c0-0.457,0.368-0.826,0.828-0.826h64.527c0.457,0,0.826,0.369,0.826,0.826V89.312z
			"/>
	</g>
</g>
<g>
	<g>
		<path fill="#333333" d="M108.363,12.266c6.654,0,12.324,5.437,12.324,12.073v0.588c0,6.638-5.533,11.928-12.187,11.928l4.799,5.41
			l-11.463-5.681h-10.29c-6.652,0-12.234-5.02-12.234-11.657v-0.588c0-6.636,5.582-12.073,12.234-12.073h0.326H108.363
			 M108.363,10.266h-16.49h-0.326c-7.849,0-14.234,6.313-14.234,14.073v0.588c0,7.658,6.252,13.657,14.234,13.657h9.822
			l11.044,5.473c0.282,0.141,0.587,0.208,0.887,0.208c0.607,0,1.201-0.276,1.591-0.785c0.58-0.761,0.541-1.826-0.094-2.542
			l-2.337-2.635c5.901-1.686,10.228-7.044,10.228-13.376v-0.588C122.688,16.71,116.128,10.266,108.363,10.266L108.363,10.266z"/>
	</g>
</g>
<g>
	<g>
		<g>
			<path fill="#333333" d="M105.982,24.667c0,0.919,0.762,1.666,1.697,1.666c0.934,0,1.694-0.747,1.694-1.666S108.615,23,107.68,23
				C106.745,23,105.982,23.748,105.982,24.667z"/>
		</g>
	</g>
	<g>
		<g>
			<path fill="#333333" d="M98.254,24.729c0,0.938,0.776,1.701,1.731,1.701c0.957,0,1.733-0.763,1.733-1.701
				s-0.776-1.701-1.733-1.701C99.03,23.028,98.254,23.791,98.254,24.729z"/>
		</g>
	</g>
	<g>
		<g>
			<path fill="#333333" d="M90.625,24.667c0,0.919,0.748,1.667,1.667,1.667s1.666-0.748,1.666-1.667S93.211,23,92.292,23
				S90.625,23.748,90.625,24.667z"/>
		</g>
	</g>
</g>
<g>
	<g>
		<path fill="#333333" d="M59.982,34.113c5.246,0,9.5,4.254,9.5,9.5c0,5.246-4.254,14.5-9.5,14.5s-9.5-9.254-9.5-14.5
			C50.482,38.367,54.736,34.113,59.982,34.113 M59.982,30.113c-7.444,0-13.5,6.056-13.5,13.5c0,6.522,5.125,18.5,13.5,18.5
			s13.5-11.979,13.5-18.5C73.482,36.169,67.427,30.113,59.982,30.113L59.982,30.113z"/>
	</g>
	<g>
		<path fill="#333333" d="M70.961,67.557C76.403,70.977,80,78.734,80,85.734H40c0-7,3.597-14.76,9.038-18.178
			c3.222,1.795,6.965,2.828,10.962,2.828S67.74,69.354,70.961,67.557 M70.961,63.377c-0.671,0-1.342,0.168-1.949,0.507
			c-2.724,1.521-5.84,2.323-9.012,2.323c-3.171,0-6.288-0.803-9.016-2.322c-0.605-0.338-1.276-0.506-1.946-0.506
			c-0.74,0-1.479,0.205-2.128,0.613C40.589,67.963,36,77.136,36,85.557c0,2.209,1.791,4.178,4,4.178h40c2.209,0,4-1.969,4-4.178
			c0-8.421-4.589-17.504-10.911-21.477C72.439,63.672,71.701,63.377,70.961,63.377L70.961,63.377z"/>
	</g>
	<g>
		<path fill="#333333" d="M49.494,47.113c-0.448,0-0.855-0.303-0.969-0.758c-0.135-0.535,0.191-1.078,0.728-1.212
			c7.457-1.864,10.359-6.501,10.388-6.548c0.159-0.262,0.432-0.438,0.736-0.474c0.311-0.038,0.61,0.068,0.826,0.284
			c4.614,4.613,9.251,4.707,9.297,4.707c0.551,0.005,0.996,0.454,0.994,1.004c-0.003,0.551-0.447,0.996-0.998,0.996
			c-0.209,0-4.926-0.054-9.865-4.495c-1.353,1.649-4.695,4.916-10.894,6.465C49.656,47.104,49.574,47.113,49.494,47.113z"/>
	</g>
	<g>
		<g>
			<path fill="#333333" d="M74.733,63.965L74.733,63.965c-1.23-0.001-2.349-0.691-2.989-1.848l-3.56-6.422
				c-0.805-1.451-0.422-2.522-0.122-3.031c0.618-1.05,1.876-1.512,3.317-1.159l8.185,1.984c1.222,0.297,2.102,1.075,2.417,2.135
				c0.314,1.062,0.002,2.192-0.857,3.106l-3.834,4.08C76.59,63.555,75.682,63.965,74.733,63.965z M72.925,55.995l1.959,3.534
				l2.342-2.491L72.925,55.995z"/>
		</g>
		<g>
			<path fill="#333333" d="M45.267,63.965c-0.948,0-1.856-0.41-2.557-1.154l-3.834-4.078c-0.859-0.914-1.172-2.047-0.857-3.107
				s1.195-1.838,2.415-2.135l8.188-1.984c1.433-0.352,2.697,0.11,3.315,1.159c0.3,0.509,0.683,1.58-0.122,3.03l-3.56,6.423
				C47.615,63.273,46.497,63.965,45.267,63.965z M42.773,57.037l2.344,2.492l1.962-3.539L42.773,57.037z"/>
		</g>
	</g>
	<g>
		<path fill="#333333" d="M59.875,81.176c-2.206,0-4-1.781-4-3.971c0-2.002,1.596-5.029,4-5.029s4,3.027,4,5.029
			C63.875,79.395,62.081,81.176,59.875,81.176z M59.875,74.176c-0.946,0-2,1.807-2,3.029c0,1.087,0.897,1.971,2,1.971
			s2-0.884,2-1.971C61.875,75.98,60.821,74.176,59.875,74.176z"/>
	</g>
	<circle fill="#333333" cx="53.156" cy="72.77" r="1.406"/>
	<circle fill="#333333" cx="49.156" cy="70.77" r="1.406"/>
	<circle fill="#333333" cx="66.156" cy="72.77" r="1.406"/>
	<circle fill="#333333" cx="70.156" cy="70.77" r="1.406"/>
</g>
<g>
	<path fill="#333333" d="M140,82.614c-0.26,0-0.52-0.11-0.711-0.29c-0.18-0.19-0.289-0.45-0.289-0.71
		c0-0.271,0.109-0.521,0.289-0.71c0.371-0.37,1.051-0.37,1.422,0c0.18,0.188,0.289,0.449,0.289,0.71c0,0.26-0.109,0.52-0.289,0.71
		C140.52,82.504,140.26,82.614,140,82.614z"/>
</g>
<g>
	<g>
		<path fill="#333333" d="M132,81.736c-0.172,0-0.346-0.045-0.5-0.135c-0.309-0.179-0.5-0.509-0.5-0.865v-9.623
			c0-0.357,0.191-0.688,0.5-0.866c0.309-0.179,0.691-0.179,1,0l8.334,4.812c0.309,0.18,0.5,0.51,0.5,0.866
			c0,0.357-0.191,0.688-0.5,0.866l-8.334,4.811C132.346,81.691,132.174,81.736,132,81.736z M133,72.846v6.158l5.334-3.078
			L133,72.846z"/>
	</g>
	<g>
		<path fill="#333333" d="M148,81.736c-0.172,0-0.346-0.045-0.5-0.135l-8.332-4.811c-0.311-0.18-0.5-0.509-0.5-0.866
			c0-0.356,0.189-0.688,0.5-0.866l8.332-4.812c0.309-0.179,0.691-0.179,1,0c0.311,0.179,0.5,0.509,0.5,0.866v9.623
			c0,0.356-0.189,0.688-0.5,0.865C148.346,81.691,148.174,81.736,148,81.736z M141.668,75.926L147,79.004v-6.158L141.668,75.926z"/>
	</g>
</g>
<g>
	<path fill="#333333" d="M130.391,47.924c-0.143,0-0.287-0.03-0.426-0.096c-0.498-0.235-0.713-0.831-0.477-1.331l3.391-7.189
		c0.164-0.35,0.518-0.573,0.904-0.573h12.434c0.385,0,0.736,0.222,0.902,0.568l3.391,7.095c0.238,0.499,0.027,1.096-0.471,1.334
		c-0.502,0.237-1.098,0.026-1.334-0.471l-3.119-6.526h-11.17l-3.119,6.616C131.127,47.712,130.766,47.924,130.391,47.924z"/>
</g>
<g>
	<path fill="#333333" d="M140,34.113c5.246,0,9.5,4.254,9.5,9.5c0,5.246-4.254,14.5-9.5,14.5s-9.5-9.254-9.5-14.5
		C130.5,38.367,134.754,34.113,140,34.113 M140,30.113c-7.445,0-13.5,6.056-13.5,13.5c0,6.522,5.125,18.5,13.5,18.5
		s13.5-11.979,13.5-18.5C153.5,36.169,147.443,30.113,140,30.113L140,30.113z"/>
</g>
<g>
	<path fill="#333333" d="M150.961,67.557c5.441,3.42,9.039,11.178,9.039,18.178h-40c0-7,3.596-14.758,9.039-18.176
		c3.221,1.795,6.963,2.827,10.961,2.827C143.996,70.386,147.74,69.354,150.961,67.557 M150.961,63.377
		c-0.672,0-1.342,0.168-1.949,0.507c-2.725,1.521-5.84,2.323-9.012,2.323s-6.289-0.803-9.014-2.322
		c-0.607-0.338-1.277-0.506-1.947-0.506c-0.74,0-1.479,0.205-2.127,0.612C120.588,67.962,116,77.135,116,85.557
		c0,2.209,1.791,4.178,4,4.178h40c2.209,0,4-1.969,4-4.178c0-8.421-4.59-17.504-10.912-21.477
		C152.439,63.672,151.701,63.377,150.961,63.377L150.961,63.377z"/>
</g>
</svg>
