<?xml version="1.0" encoding="utf-8"?>
<!-- Generator: Adobe Illustrator 16.0.4, SVG Export Plug-In . SVG Version: 6.00 Build 0)  -->
<!DOCTYPE svg PUBLIC "-//W3C//DTD SVG 1.1//EN" "http://www.w3.org/Graphics/SVG/1.1/DTD/svg11.dtd">
<svg version="1.1" id="Layer_1" xmlns="http://www.w3.org/2000/svg" xmlns:xlink="http://www.w3.org/1999/xlink" x="0px" y="0px"
	 width="200px" height="100px" viewBox="0 0 200 100" enable-background="new 0 0 200 100" xml:space="preserve">
<g display="none">
	<g display="inline">
		<g>
			<path fill="#FAFAFA" d="M46.033,92.5c-0.845,0-1.533-0.688-1.533-1.533V63.036c0-0.847,0.688-1.536,1.533-1.536h67.441
				c0.849,0,1.537,0.689,1.537,1.536v27.931c0,0.846-0.688,1.533-1.537,1.533H46.033z"/>
			<path fill="#FAFAFA" d="M113.475,62c0.571,0,1.037,0.465,1.037,1.036v27.931c0,0.572-0.466,1.033-1.037,1.033H46.033
				C45.461,92,45,91.539,45,90.967V63.036C45,62.465,45.461,62,46.033,62H113.475 M113.475,61H46.033C44.912,61,44,61.913,44,63.036
				v27.931C44,92.088,44.912,93,46.033,93h67.441c1.123,0,2.037-0.912,2.037-2.033V63.036C115.512,61.913,114.598,61,113.475,61
				L113.475,61z"/>
		</g>
	</g>
</g>
<g display="none">
	<path display="inline" fill="#333333" d="M90.096,85.908"/>
	<g display="inline">
		<circle fill="#333333" cx="102.717" cy="82.896" r="2.949"/>
		<circle fill="#333333" cx="93.72" cy="82.896" r="2.949"/>
		<path fill="#333333" d="M68.057,80.016c-0.164,0-0.3,0.135-0.3,0.303V85.7c0,0.166,0.136,0.305,0.3,0.305h18.274
			c0.167,0,0.302-0.139,0.302-0.305v-5.382c0-0.168-0.135-0.303-0.302-0.303H68.057L68.057,80.016z M74.065,83.861h-3.31
			c-0.498,0-0.897-0.402-0.897-0.896s0.398-0.896,0.897-0.896h3.31c0.495,0,0.896,0.404,0.896,0.896
			C74.961,83.458,74.561,83.861,74.065,83.861z M83.686,83.861h-3.31c-0.497,0-0.898-0.402-0.898-0.896s0.402-0.896,0.898-0.896
			h3.307c0.495,0,0.899,0.404,0.899,0.896C84.582,83.458,84.181,83.861,83.686,83.861z"/>
		<path fill="#333333" d="M87.049,69.852c0,0.284-0.229,0.515-0.51,0.515H67.851c-0.279,0-0.509-0.229-0.509-0.515v-2.679H47.483
			v22.14h19.859v-1.184c0-0.281,0.23-0.508,0.509-0.508h18.688c0.281,0,0.51,0.227,0.51,0.508v1.184h24.961v-22.14H87.049V69.852z
			 M67.342,71.839c0-0.282,0.23-0.509,0.509-0.509h18.688c0.281,0,0.51,0.227,0.51,0.509v2.187c0,0.281-0.229,0.516-0.51,0.516
			H67.851c-0.279,0-0.509-0.229-0.509-0.516V71.839L67.342,71.839z M67.342,75.904c0-0.28,0.23-0.506,0.509-0.506h18.688
			c0.281,0,0.51,0.226,0.51,0.506v2.188c0,0.281-0.229,0.512-0.51,0.512H67.851c-0.279,0-0.509-0.229-0.509-0.512V75.904
			L67.342,75.904z M62.908,81.504h-3.91v3.907H55.2v-3.907h-3.91v-3.802h3.91v-3.906h3.798v3.906h3.91V81.504z M98.841,79.318
			c0-0.164,0.135-0.301,0.302-0.301h7.154c0.167,0,0.303,0.137,0.303,0.301v7.156c0,0.166-0.136,0.301-0.303,0.301h-7.154
			c-0.167,0-0.302-0.135-0.302-0.301V79.318L98.841,79.318z M89.841,79.318c0-0.164,0.135-0.301,0.302-0.301h7.154
			c0.167,0,0.304,0.137,0.304,0.301v7.156c0,0.166-0.137,0.301-0.304,0.301h-7.154c-0.167,0-0.302-0.135-0.302-0.301V79.318z
			 M87.461,80.318v5.379c0,0.623-0.506,1.131-1.13,1.131H68.057c-0.62,0-1.128-0.508-1.128-1.131v-5.379
			c0-0.621,0.507-1.129,1.128-1.129h18.274C86.955,79.189,87.461,79.697,87.461,80.318z"/>
		<path fill="#333333" d="M113.475,62H46.033C45.461,62,45,62.465,45,63.036v27.931C45,91.539,45.461,92,46.033,92h67.441
			c0.568,0,1.037-0.461,1.037-1.033V63.036C114.512,62.465,114.046,62,113.475,62z M112.836,89.312c0,0.457-0.369,0.826-0.826,0.826
			H47.483c-0.46,0-0.828-0.369-0.828-0.826V67.172c0-0.457,0.368-0.826,0.828-0.826h64.527c0.457,0,0.826,0.369,0.826,0.826V89.312z
			"/>
	</g>
</g>
<g>
	<circle fill="#333333" cx="109.541" cy="66.957" r="3.223"/>
	<circle fill="#333333" cx="118.418" cy="63.001" r="3.224"/>
	<path fill="#333333" d="M95.548,77.023c0.212,0.406,0.091,0.891-0.27,1.076l-4.346,2.258c-0.359,0.188-0.825,0.011-1.035-0.397l0,0
		c-0.212-0.409-0.093-0.894,0.267-1.079l4.344-2.257C94.874,76.438,95.336,76.613,95.548,77.023L95.548,77.023z"/>
	<path fill="#333333" d="M104.464,77.023c0.21,0.406,0.087,0.891-0.271,1.076l-4.348,2.258c-0.358,0.188-0.824,0.011-1.034-0.397
		l0,0c-0.212-0.409-0.096-0.894,0.268-1.079l4.348-2.257C103.784,76.438,104.252,76.613,104.464,77.023L104.464,77.023z"/>
	<path fill="#333333" d="M116.193,95h-40.78c-0.878,0-1.646-0.309-2.22-0.895c-0.943-0.959-0.966-2.271-0.96-2.525V9.083
		c0-2.995,2.109-4.083,3.53-4.083h48.475c1.305,0,2.099,0.542,2.535,0.999c0.938,0.973,0.935,2.217,0.926,2.457
		c0-0.001,0.068,60.623,0.068,72.335C127.766,94.84,116.309,95,116.193,95z M76.552,90.688l39.636,0.002
		c0.855-0.013,7.27,0.586,7.27-9.896c0-11.719-0.068-71.399-0.068-71.399c0.057-0.057-0.004-0.079-0.146-0.079H76.763
		c-0.118,0.02-0.216,0.28-0.216,0.77v80.526C76.545,90.633,76.547,90.658,76.552,90.688z"/>
	<path fill="#333333" d="M91.255,63.279h-3.398v-3.469c0-0.439-0.358-0.793-0.798-0.793h-3.262c-0.438,0-0.795,0.354-0.795,0.793
		v3.469h-3.329c-0.441,0-0.798,0.359-0.798,0.799v3.257c0,0.444,0.356,0.799,0.798,0.799h3.329v3.362c0,0.441,0.356,0.8,0.795,0.8
		h3.262c0.438,0,0.798-0.356,0.798-0.8v-3.362h3.398c0.44,0,0.795-0.354,0.795-0.799v-3.257
		C92.05,63.639,91.695,63.279,91.255,63.279z"/>
	<path fill="#333333" d="M119.723,13.891c0,0-37.31,0-39.102,0c-1.858,0-1.754,1.62-1.754,1.62s0,28.896,0,30.421
		c0,1.534,1.022,1.438,1.022,1.438s31.14,0,35.304,0c5.636,0,5.918-5.368,5.918-5.368s0-24.363,0-26.492
		C121.111,13.881,119.723,13.891,119.723,13.891z M114.043,43.273H86.166v-25.45h27.877V43.273z"/>
</g>
<g>
	<path fill="#333333" d="M88.3,19h10c0.553,0,1,0.447,1,1s-0.447,1-1,1h-9v4c0,0.553-0.447,1-1,1c-0.553,0-1-0.447-1-1v-5
		C87.3,19.447,87.747,19,88.3,19z"/>
</g>
<g>
	<path fill="#333333" d="M101.3,19h3c0.554,0,1,0.447,1,1s-0.446,1-1,1h-3c-0.553,0-1-0.447-1-1S100.747,19,101.3,19z"/>
</g>
</svg>
