<?xml version="1.0" encoding="utf-8"?>
<!-- Generator: Adobe Illustrator 16.0.4, SVG Export Plug-In . SVG Version: 6.00 Build 0)  -->
<!DOCTYPE svg PUBLIC "-//W3C//DTD SVG 1.1//EN" "http://www.w3.org/Graphics/SVG/1.1/DTD/svg11.dtd">
<svg version="1.1" id="Layer_1" xmlns="http://www.w3.org/2000/svg" xmlns:xlink="http://www.w3.org/1999/xlink" x="0px" y="0px"
	 width="200px" height="100px" viewBox="0 0 200 100" enable-background="new 0 0 200 100" xml:space="preserve">
<g display="none">
	<g display="inline">
		<g>
			<path fill="#FAFAFA" d="M46.033,92.5c-0.845,0-1.533-0.688-1.533-1.533V63.036c0-0.847,0.688-1.536,1.533-1.536h67.441
				c0.849,0,1.537,0.689,1.537,1.536v27.931c0,0.846-0.688,1.533-1.537,1.533H46.033z"/>
			<path fill="#FAFAFA" d="M113.475,62c0.571,0,1.037,0.465,1.037,1.036v27.931c0,0.572-0.466,1.033-1.037,1.033H46.033
				C45.461,92,45,91.539,45,90.967V63.036C45,62.465,45.461,62,46.033,62H113.475 M113.475,61H46.033C44.912,61,44,61.913,44,63.036
				v27.931C44,92.088,44.912,93,46.033,93h67.441c1.123,0,2.037-0.912,2.037-2.033V63.036C115.512,61.913,114.598,61,113.475,61
				L113.475,61z"/>
		</g>
	</g>
</g>
<g display="none">
	<path display="inline" fill="#333333" d="M90.096,85.908"/>
	<g display="inline">
		<circle fill="#333333" cx="102.717" cy="82.896" r="2.949"/>
		<circle fill="#333333" cx="93.72" cy="82.896" r="2.949"/>
		<path fill="#333333" d="M68.057,80.016c-0.164,0-0.3,0.135-0.3,0.303v5.381c0,0.166,0.136,0.305,0.3,0.305h18.274
			c0.167,0,0.302-0.139,0.302-0.305v-5.381c0-0.168-0.135-0.303-0.302-0.303H68.057z M74.065,83.861h-3.31
			c-0.498,0-0.897-0.402-0.897-0.896s0.398-0.896,0.897-0.896h3.31c0.495,0,0.896,0.404,0.896,0.896
			C74.961,83.458,74.561,83.861,74.065,83.861z M83.686,83.861h-3.31c-0.497,0-0.898-0.402-0.898-0.896s0.402-0.896,0.898-0.896
			h3.307c0.495,0,0.899,0.404,0.899,0.896C84.582,83.458,84.181,83.861,83.686,83.861z"/>
		<path fill="#333333" d="M87.049,69.852c0,0.284-0.229,0.513-0.51,0.513H67.851c-0.279,0-0.509-0.229-0.509-0.513v-2.679H47.483
			v22.14h19.859v-1.184c0-0.281,0.23-0.508,0.509-0.508h18.688c0.281,0,0.51,0.227,0.51,0.508v1.184h24.961v-22.14H87.049V69.852z
			 M67.342,71.839c0-0.282,0.23-0.509,0.509-0.509h18.688c0.281,0,0.51,0.227,0.51,0.509v2.187c0,0.281-0.229,0.514-0.51,0.514
			H67.851c-0.279,0-0.509-0.23-0.509-0.514V71.839L67.342,71.839z M67.342,75.904c0-0.28,0.23-0.506,0.509-0.506h18.688
			c0.281,0,0.51,0.226,0.51,0.506v2.188c0,0.281-0.229,0.511-0.51,0.511H67.851c-0.279,0-0.509-0.229-0.509-0.511V75.904
			L67.342,75.904z M62.908,81.504h-3.91v3.907H55.2v-3.907h-3.91v-3.802h3.91v-3.906h3.798v3.906h3.91V81.504z M98.841,79.318
			c0-0.164,0.135-0.301,0.302-0.301h7.154c0.167,0,0.303,0.137,0.303,0.301v7.156c0,0.166-0.136,0.301-0.303,0.301h-7.154
			c-0.167,0-0.302-0.135-0.302-0.301V79.318L98.841,79.318z M89.841,79.318c0-0.164,0.135-0.301,0.302-0.301h7.154
			c0.167,0,0.304,0.137,0.304,0.301v7.156c0,0.166-0.137,0.301-0.304,0.301h-7.154c-0.167,0-0.302-0.135-0.302-0.301V79.318z
			 M87.461,80.318v5.379c0,0.623-0.506,1.131-1.13,1.131H68.057c-0.62,0-1.128-0.508-1.128-1.131v-5.379
			c0-0.621,0.507-1.129,1.128-1.129h18.274C86.955,79.189,87.461,79.697,87.461,80.318z"/>
		<path fill="#333333" d="M113.475,62H46.033C45.461,62,45,62.465,45,63.036v27.931C45,91.539,45.461,92,46.033,92h67.441
			c0.57,0,1.037-0.461,1.037-1.033V63.036C114.512,62.465,114.046,62,113.475,62z M112.836,89.312c0,0.457-0.369,0.826-0.826,0.826
			H47.483c-0.46,0-0.828-0.369-0.828-0.826V67.172c0-0.457,0.368-0.826,0.828-0.826h64.527c0.457,0,0.826,0.369,0.826,0.826V89.312z
			"/>
	</g>
</g>
<g>
	<path fill="#333333" d="M146,12v72H54V12H146 M146.421,8h-92C52.212,8,50,9.71,50,11.919v72C50,86.128,52.212,88,54.421,88h92
		c2.209,0,3.579-1.872,3.579-4.081v-72C150,9.71,148.63,8,146.421,8L146.421,8z"/>
</g>
<g>
	<path fill="#333333" d="M147,22H53c-0.553,0-1-0.447-1-1s0.447-1,1-1h94c0.553,0,1,0.447,1,1S147.553,22,147,22z"/>
</g>
<g>
	<path fill="#333333" d="M59,17h-2c-0.553,0-1-0.447-1-1s0.447-1,1-1h2c0.553,0,1,0.447,1,1S59.553,17,59,17z"/>
</g>
<g>
	<path fill="#333333" d="M65,17h-2c-0.553,0-1-0.447-1-1s0.447-1,1-1h2c0.553,0,1,0.447,1,1S65.553,17,65,17z"/>
</g>
<g>
	<path fill="#333333" d="M71,17h-2c-0.553,0-1-0.447-1-1s0.447-1,1-1h2c0.553,0,1,0.447,1,1S71.553,17,71,17z"/>
</g>
<g>
	<path fill="#333333" d="M89,58H59c-0.553,0-1-0.447-1-1V27c0-0.553,0.447-1,1-1h30c0.553,0,1,0.447,1,1v30
		C90,57.553,89.553,58,89,58z M60,56h28V28H60V56z"/>
</g>
<g>
	<path fill="#333333" d="M141,80H59c-0.553,0-1-0.447-1-1V67c0-0.553,0.447-1,1-1h82c0.553,0,1,0.447,1,1v12
		C142,79.553,141.553,80,141,80z M60,78h80V68H60V78z"/>
</g>
<g>
	<g>
		<path fill="#333333" d="M59.271,57.919c-0.154,0-0.31-0.036-0.454-0.114c-0.468-0.253-0.643-0.836-0.392-1.302L87.88,27.516
			c0.251-0.468,0.835-0.643,1.302-0.392c0.467,0.253,0.643,0.835,0.392,1.302L60.119,57.413
			C59.945,57.736,59.614,57.919,59.271,57.919z"/>
	</g>
	<g>
		<path fill="#333333" d="M88.729,57.919c-0.343,0-0.674-0.183-0.848-0.506L58.426,28.426c-0.251-0.467-0.076-1.049,0.392-1.302
			c0.467-0.251,1.05-0.076,1.302,0.392l29.455,28.987c0.251,0.466,0.075,1.049-0.392,1.302
			C89.038,57.883,88.882,57.919,88.729,57.919z"/>
	</g>
</g>
<g>
	<path fill="#333333" d="M127,33h-12c-0.553,0-1-0.447-1-1s0.447-1,1-1h12c0.553,0,1,0.447,1,1S127.553,33,127,33z"/>
</g>
<g>
	<path fill="#333333" d="M140,33h-9c-0.553,0-1-0.447-1-1s0.447-1,1-1h9c0.553,0,1,0.447,1,1S140.553,33,140,33z"/>
</g>
<g>
	<path fill="#333333" d="M121,38h-6c-0.553,0-1-0.447-1-1s0.447-1,1-1h6c0.553,0,1,0.447,1,1S121.553,38,121,38z"/>
</g>
<g>
	<path fill="#333333" d="M132,38h-7c-0.553,0-1-0.447-1-1s0.447-1,1-1h7c0.553,0,1,0.447,1,1S132.553,38,132,38z"/>
</g>
<g>
	<path fill="#333333" d="M125,43h-10c-0.553,0-1-0.447-1-1s0.447-1,1-1h10c0.553,0,1,0.447,1,1S125.553,43,125,43z"/>
</g>
<g>
	<path fill="#333333" d="M136,43h-7c-0.553,0-1-0.447-1-1s0.447-1,1-1h7c0.553,0,1,0.447,1,1S136.553,43,136,43z"/>
</g>
<g>
	<path fill="#333333" d="M140,38h-4c-0.553,0-1-0.447-1-1s0.447-1,1-1h4c0.553,0,1,0.447,1,1S140.553,38,140,38z"/>
</g>
<g>
	<path fill="#333333" d="M114,49H97c-0.553,0-1-0.447-1-1s0.447-1,1-1h17c0.553,0,1,0.447,1,1S114.553,49,114,49z"/>
</g>
<g>
	<path fill="#333333" d="M130,49h-12c-0.553,0-1-0.447-1-1s0.447-1,1-1h12c0.553,0,1,0.447,1,1S130.553,49,130,49z"/>
</g>
<g>
	<path fill="#333333" d="M140,49h-6c-0.553,0-1-0.447-1-1s0.447-1,1-1h6c0.553,0,1,0.447,1,1S140.553,49,140,49z"/>
</g>
<g>
	<path fill="#333333" d="M108,54H97c-0.553,0-1-0.447-1-1s0.447-1,1-1h11c0.553,0,1,0.447,1,1S108.553,54,108,54z"/>
</g>
<g>
	<path fill="#333333" d="M119,54h-7c-0.553,0-1-0.447-1-1s0.447-1,1-1h7c0.553,0,1,0.447,1,1S119.553,54,119,54z"/>
</g>
<g>
	<path fill="#333333" d="M112,59H97c-0.553,0-1-0.447-1-1s0.447-1,1-1h15c0.553,0,1,0.447,1,1S112.553,59,112,59z"/>
</g>
<g>
	<path fill="#333333" d="M127,59h-11c-0.553,0-1-0.447-1-1s0.447-1,1-1h11c0.553,0,1,0.447,1,1S127.553,59,127,59z"/>
</g>
<g>
	<path fill="#333333" d="M140,59h-10c-0.553,0-1-0.447-1-1s0.447-1,1-1h10c0.553,0,1,0.447,1,1S140.553,59,140,59z"/>
</g>
<g>
	<path fill="#333333" d="M140,54h-16c-0.553,0-1-0.447-1-1s0.447-1,1-1h16c0.553,0,1,0.447,1,1S140.553,54,140,54z"/>
</g>
<g>
	<g>
		<path fill="#333333" d="M110,28H96c-0.553,0-1-0.447-1-1s0.447-1,1-1h14c0.553,0,1,0.447,1,1S110.553,28,110,28z"/>
	</g>
	<g>
		<path fill="#333333" d="M106,43h-6c-0.553,0-1-0.447-1-1s0.447-1,1-1h6c0.553,0,1,0.447,1,1S106.553,43,106,43z"/>
	</g>
	<g>
		<path fill="#333333" d="M103,43c-0.553,0-1-0.447-1-1V27c0-0.553,0.447-1,1-1s1,0.447,1,1v15C104,42.553,103.553,43,103,43z"/>
	</g>
	<g>
		<path fill="#333333" d="M110,31c-0.553,0-1-0.447-1-1v-3c0-0.553,0.447-1,1-1s1,0.447,1,1v3C111,30.553,110.553,31,110,31z"/>
	</g>
	<g>
		<path fill="#333333" d="M96,31c-0.553,0-1-0.447-1-1v-3c0-0.553,0.447-1,1-1s1,0.447,1,1v3C97,30.553,96.553,31,96,31z"/>
	</g>
</g>
</svg>
