<?xml version="1.0" encoding="utf-8"?>
<!-- Generator: Adobe Illustrator 16.0.4, SVG Export Plug-In . SVG Version: 6.00 Build 0)  -->
<!DOCTYPE svg PUBLIC "-//W3C//DTD SVG 1.1//EN" "http://www.w3.org/Graphics/SVG/1.1/DTD/svg11.dtd">
<svg version="1.1" id="Layer_1" xmlns="http://www.w3.org/2000/svg" xmlns:xlink="http://www.w3.org/1999/xlink" x="0px" y="0px"
	 width="200px" height="100px" viewBox="0 0 200 100" enable-background="new 0 0 200 100" xml:space="preserve">
<g display="none">
	<g display="inline">
		<g>
			<path fill="#FAFAFA" d="M46.033,92.5c-0.845,0-1.533-0.688-1.533-1.533V63.036c0-0.847,0.688-1.536,1.533-1.536h67.441
				c0.849,0,1.537,0.689,1.537,1.536v27.931c0,0.846-0.688,1.533-1.537,1.533H46.033z"/>
			<path fill="#FAFAFA" d="M113.475,62c0.571,0,1.037,0.465,1.037,1.036v27.931c0,0.572-0.466,1.033-1.037,1.033H46.033
				C45.461,92,45,91.539,45,90.967V63.036C45,62.465,45.461,62,46.033,62H113.475 M113.475,61H46.033C44.912,61,44,61.913,44,63.036
				v27.931C44,92.088,44.912,93,46.033,93h67.441c1.123,0,2.037-0.912,2.037-2.033V63.036C115.512,61.913,114.598,61,113.475,61
				L113.475,61z"/>
		</g>
	</g>
</g>
<g display="none">
	<path display="inline" fill="#333333" d="M90.096,85.908"/>
	<g display="inline">
		<circle fill="#333333" cx="102.717" cy="82.896" r="2.949"/>
		<circle fill="#333333" cx="93.72" cy="82.896" r="2.949"/>
		<path fill="#333333" d="M68.057,80.016c-0.164,0-0.3,0.135-0.3,0.303v5.381c0,0.166,0.136,0.305,0.3,0.305h18.274
			c0.167,0,0.302-0.139,0.302-0.305v-5.381c0-0.168-0.135-0.303-0.302-0.303H68.057z M74.065,83.861h-3.31
			c-0.498,0-0.897-0.402-0.897-0.896s0.398-0.896,0.897-0.896h3.31c0.495,0,0.896,0.404,0.896,0.896
			C74.961,83.458,74.561,83.861,74.065,83.861z M83.686,83.861h-3.31c-0.497,0-0.898-0.402-0.898-0.896s0.402-0.896,0.898-0.896
			h3.307c0.495,0,0.899,0.404,0.899,0.896C84.582,83.458,84.181,83.861,83.686,83.861z"/>
		<path fill="#333333" d="M87.049,69.852c0,0.284-0.229,0.513-0.51,0.513H67.851c-0.279,0-0.509-0.229-0.509-0.513v-2.679H47.483
			v22.14h19.859v-1.184c0-0.281,0.23-0.508,0.509-0.508h18.688c0.281,0,0.51,0.227,0.51,0.508v1.184h24.961v-22.14H87.049V69.852z
			 M67.342,71.839c0-0.282,0.23-0.509,0.509-0.509h18.688c0.281,0,0.51,0.227,0.51,0.509v2.187c0,0.281-0.229,0.514-0.51,0.514
			H67.851c-0.279,0-0.509-0.23-0.509-0.514V71.839L67.342,71.839z M67.342,75.904c0-0.28,0.23-0.506,0.509-0.506h18.688
			c0.281,0,0.51,0.226,0.51,0.506v2.188c0,0.281-0.229,0.511-0.51,0.511H67.851c-0.279,0-0.509-0.229-0.509-0.511V75.904
			L67.342,75.904z M62.908,81.504h-3.91v3.907H55.2v-3.907h-3.91v-3.802h3.91v-3.906h3.798v3.906h3.91V81.504z M98.841,79.318
			c0-0.164,0.135-0.301,0.302-0.301h7.154c0.167,0,0.303,0.137,0.303,0.301v7.156c0,0.166-0.136,0.301-0.303,0.301h-7.154
			c-0.167,0-0.302-0.135-0.302-0.301V79.318L98.841,79.318z M89.841,79.318c0-0.164,0.135-0.301,0.302-0.301h7.154
			c0.167,0,0.304,0.137,0.304,0.301v7.156c0,0.166-0.137,0.301-0.304,0.301h-7.154c-0.167,0-0.302-0.135-0.302-0.301V79.318z
			 M87.461,80.318v5.379c0,0.623-0.506,1.131-1.13,1.131H68.057c-0.62,0-1.128-0.508-1.128-1.131v-5.379
			c0-0.621,0.507-1.129,1.128-1.129h18.274C86.955,79.189,87.461,79.697,87.461,80.318z"/>
		<path fill="#333333" d="M113.475,62H46.033C45.461,62,45,62.465,45,63.036v27.931C45,91.539,45.461,92,46.033,92h67.441
			c0.57,0,1.037-0.461,1.037-1.033V63.036C114.512,62.465,114.046,62,113.475,62z M112.836,89.312c0,0.457-0.369,0.826-0.826,0.826
			H47.483c-0.46,0-0.828-0.369-0.828-0.826V67.172c0-0.457,0.368-0.826,0.828-0.826h64.527c0.457,0,0.826,0.369,0.826,0.826V89.312z
			"/>
	</g>
</g>
<g>
	<g>
		<path fill="#333333" d="M146,14v72H54V14H146 M145.609,10h-92C51.4,10,50,12.226,50,14.435v72C50,88.645,51.4,90,53.609,90h92
			c2.209,0,4.391-1.355,4.391-3.564v-72C150,12.226,147.818,10,145.609,10L145.609,10z"/>
	</g>
	<g>
		<path fill="#333333" d="M147,25H53c-0.553,0-1-0.447-1-1s0.447-1,1-1h94c0.553,0,1,0.447,1,1S147.553,25,147,25z"/>
	</g>
	<g>
		<path fill="#333333" d="M59,20h-2c-0.553,0-1-0.447-1-1s0.447-1,1-1h2c0.553,0,1,0.447,1,1S59.553,20,59,20z"/>
	</g>
	<g>
		<path fill="#333333" d="M65,20h-2c-0.553,0-1-0.447-1-1s0.447-1,1-1h2c0.553,0,1,0.447,1,1S65.553,20,65,20z"/>
	</g>
	<g>
		<path fill="#333333" d="M71,20h-2c-0.553,0-1-0.447-1-1s0.447-1,1-1h2c0.553,0,1,0.447,1,1S71.553,20,71,20z"/>
	</g>
	<g>
		<path fill="#333333" d="M90.062,64.52c-0.302,0-0.6-0.137-0.796-0.395l-5.944-7.801c-0.281-0.368-0.272-0.881,0.021-1.238
			l5.944-7.283c0.349-0.428,0.978-0.492,1.406-0.143c0.429,0.349,0.492,0.979,0.143,1.406l-5.445,6.673l5.466,7.173
			c0.335,0.439,0.25,1.066-0.188,1.4C90.485,64.452,90.272,64.52,90.062,64.52z"/>
	</g>
	<g>
		<path fill="#333333" d="M108.115,64.52c-0.223,0-0.445-0.074-0.631-0.227c-0.43-0.35-0.492-0.979-0.144-1.406l5.445-6.674
			l-5.466-7.172c-0.336-0.439-0.252-1.067,0.188-1.401c0.441-0.337,1.068-0.249,1.401,0.188l5.944,7.8
			c0.28,0.368,0.271,0.88-0.021,1.238l-5.943,7.284C108.693,64.393,108.404,64.52,108.115,64.52z"/>
	</g>
	<g>
		<path fill="#333333" d="M102.811,67.604c-0.396,0-0.772-0.237-0.93-0.631l-7.916-19.917c-0.203-0.513,0.047-1.095,0.561-1.299
			c0.513-0.201,1.094,0.047,1.299,0.561l7.916,19.917c0.202,0.514-0.048,1.096-0.562,1.3
			C103.059,67.582,102.934,67.604,102.811,67.604z"/>
	</g>
</g>
</svg>
