<?xml version="1.0" encoding="utf-8"?>
<!-- Generator: Adobe Illustrator 16.0.4, SVG Export Plug-In . SVG Version: 6.00 Build 0)  -->
<!DOCTYPE svg PUBLIC "-//W3C//DTD SVG 1.1//EN" "http://www.w3.org/Graphics/SVG/1.1/DTD/svg11.dtd">
<svg version="1.1" id="Layer_1" xmlns="http://www.w3.org/2000/svg" xmlns:xlink="http://www.w3.org/1999/xlink" x="0px" y="0px"
	 width="200px" height="100px" viewBox="0 0 200 100" enable-background="new 0 0 200 100" xml:space="preserve">
<g id="Layer_1_1_" display="none">
	<g display="inline">
		<g>
			<circle fill="#333333" cx="139.688" cy="63.073" r="2.865"/>
			<circle fill="#333333" cx="147.578" cy="59.557" r="2.865"/>
			<path fill="#333333" d="M126.361,72.021c0.188,0.361,0.08,0.791-0.239,0.957l-3.863,2.006c-0.319,0.168-0.733,0.01-0.92-0.354
				l0,0c-0.188-0.363-0.083-0.793,0.237-0.959l3.861-2.006C125.762,71.5,126.173,71.656,126.361,72.021L126.361,72.021z"/>
			<path fill="#333333" d="M134.286,72.021c0.187,0.361,0.077,0.791-0.241,0.957l-3.865,2.006c-0.318,0.168-0.732,0.01-0.919-0.354
				l0,0c-0.188-0.363-0.084-0.793,0.238-0.959l3.864-2.006C133.682,71.5,134.098,71.656,134.286,72.021L134.286,72.021z"/>
			<path fill="#333333" d="M144.712,88h-36.248c-0.78,0-1.463-0.273-1.974-0.795c-0.838-0.852-0.858-2.02-0.854-2.245V11.629
				c0-2.662,1.875-3.629,3.137-3.629h43.09c1.158,0,1.863,0.482,2.253,0.888c0.833,0.865,0.829,1.971,0.821,2.184
				c0-0.001,0.062,53.886,0.062,64.298C154.998,87.857,144.814,88,144.712,88z M108.587,85.055l36.119,0.002
				c0.762-0.011,7.349-0.367,7.349-9.688c0-10.417-0.062-64.355-0.062-64.355c0.051-0.05-0.001-0.07-0.129-0.07h-43.09
				c-0.104,0.018-0.191,0.249-0.191,0.684v73.358C108.581,85.007,108.583,85.029,108.587,85.055z"/>
			<path fill="#333333" d="M121.656,59.805h-3.021v-3.084c0-0.391-0.318-0.705-0.709-0.705h-2.898c-0.391,0-0.707,0.314-0.707,0.705
				v3.084h-2.959c-0.393,0-0.709,0.318-0.709,0.709v2.896c0,0.396,0.316,0.71,0.709,0.71h2.959v2.988
				c0,0.394,0.316,0.711,0.707,0.711h2.898c0.391,0,0.709-0.317,0.709-0.711v-2.988h3.021c0.392,0,0.707-0.314,0.707-0.71v-2.896
				C122.363,60.123,122.048,59.805,121.656,59.805z"/>
			<path fill="#333333" d="M148.738,15.903c0,0-34.941,0-36.534,0c-1.652,0-1.56,1.44-1.56,1.44s0,25.685,0,27.041
				c0,1.363,0.908,1.277,0.908,1.277s29.458,0,33.158,0c5.01,0,5.262-4.771,5.262-4.771s0-21.656,0-23.548
				C149.973,15.894,148.738,15.903,148.738,15.903z M142.801,42.021h-24.779V19.398h24.779V42.021z"/>
		</g>
		<g>
			<g>
				<g>
					<path fill="#FAFAFA" d="M46.033,92.5c-0.845,0-1.533-0.688-1.533-1.533V63.036c0-0.847,0.688-1.536,1.533-1.536h67.441
						c0.849,0,1.537,0.689,1.537,1.536v27.931c0,0.846-0.688,1.533-1.537,1.533H46.033z"/>
					<path fill="#FAFAFA" d="M113.475,62c0.571,0,1.037,0.465,1.037,1.036v27.931c0,0.572-0.466,1.033-1.037,1.033H46.033
						C45.461,92,45,91.539,45,90.967V63.036C45,62.465,45.461,62,46.033,62H113.475 M113.475,61H46.033
						C44.912,61,44,61.913,44,63.036v27.931C44,92.088,44.912,93,46.033,93h67.441c1.123,0,2.037-0.912,2.037-2.033V63.036
						C115.512,61.913,114.598,61,113.475,61L113.475,61z"/>
				</g>
			</g>
		</g>
		<g>
			<path fill="#333333" d="M90.096,85.908"/>
			<g>
				<circle fill="#333333" cx="102.717" cy="82.896" r="2.949"/>
				<circle fill="#333333" cx="93.72" cy="82.896" r="2.949"/>
				<path fill="#333333" d="M68.057,80.016c-0.164,0-0.3,0.135-0.3,0.303v5.38c0,0.166,0.136,0.305,0.3,0.305h18.274
					c0.167,0,0.302-0.139,0.302-0.305v-5.38c0-0.168-0.135-0.303-0.302-0.303H68.057z M74.065,83.861h-3.31
					c-0.498,0-0.897-0.402-0.897-0.896s0.398-0.896,0.897-0.896h3.31c0.495,0,0.896,0.404,0.896,0.896
					C74.961,83.458,74.561,83.861,74.065,83.861z M83.686,83.861h-3.31c-0.497,0-0.898-0.402-0.898-0.896s0.402-0.896,0.898-0.896
					h3.307c0.495,0,0.899,0.404,0.899,0.896C84.582,83.458,84.181,83.861,83.686,83.861z"/>
				<path fill="#333333" d="M87.049,69.852c0,0.284-0.229,0.512-0.51,0.512H67.851c-0.279,0-0.509-0.228-0.509-0.512v-2.679H47.483
					v22.14h19.859v-1.184c0-0.281,0.23-0.508,0.509-0.508h18.688c0.281,0,0.51,0.227,0.51,0.508v1.184h24.961v-22.14H87.049V69.852z
					 M67.342,71.839c0-0.282,0.23-0.509,0.509-0.509h18.688c0.281,0,0.51,0.227,0.51,0.509v2.187c0,0.281-0.229,0.513-0.51,0.513
					H67.851c-0.279,0-0.509-0.231-0.509-0.513V71.839L67.342,71.839z M67.342,75.904c0-0.28,0.23-0.506,0.509-0.506h18.688
					c0.281,0,0.51,0.226,0.51,0.506v2.189c0,0.281-0.229,0.51-0.51,0.51H67.851c-0.279,0-0.509-0.229-0.509-0.51V75.904
					L67.342,75.904z M62.908,81.504h-3.91v3.907H55.2v-3.907h-3.91v-3.802h3.91v-3.906h3.798v3.906h3.91V81.504z M98.841,79.318
					c0-0.164,0.135-0.301,0.302-0.301h7.154c0.167,0,0.303,0.137,0.303,0.301v7.156c0,0.166-0.136,0.301-0.303,0.301h-7.154
					c-0.167,0-0.302-0.135-0.302-0.301V79.318L98.841,79.318z M89.841,79.318c0-0.164,0.135-0.301,0.302-0.301h7.154
					c0.167,0,0.304,0.137,0.304,0.301v7.156c0,0.166-0.137,0.301-0.304,0.301h-7.154c-0.167,0-0.302-0.135-0.302-0.301V79.318z
					 M87.461,80.318v5.379c0,0.623-0.506,1.131-1.13,1.131H68.057c-0.62,0-1.128-0.508-1.128-1.131v-5.379
					c0-0.621,0.507-1.129,1.128-1.129h18.274C86.955,79.189,87.461,79.697,87.461,80.318z"/>
				<path fill="#333333" d="M113.475,62H46.033C45.461,62,45,62.465,45,63.036v27.931C45,91.539,45.461,92,46.033,92h67.441
					c0.571,0,1.037-0.461,1.037-1.033V63.036C114.512,62.465,114.046,62,113.475,62z M112.836,89.312
					c0,0.457-0.369,0.826-0.826,0.826H47.483c-0.46,0-0.828-0.369-0.828-0.826V67.172c0-0.457,0.368-0.826,0.828-0.826h64.527
					c0.457,0,0.826,0.369,0.826,0.826V89.312z"/>
			</g>
		</g>
	</g>
</g>
<g>
	<path fill="#333333" d="M110.5,16v53h-76V16H110.5 M110.57,12h-76c-2.209,0-4.071,1.909-4.071,4.118v53
		c0,2.209,1.862,3.882,4.071,3.882h76c2.209,0,3.93-1.673,3.93-3.882v-53C114.5,13.909,112.779,12,110.57,12L110.57,12z"/>
</g>
<g>
	<path fill="#333333" d="M106.5,64h-68c-0.553,0-1-0.447-1-1V21c0-0.553,0.447-1,1-1h68c0.553,0,1,0.447,1,1v42
		C107.5,63.553,107.053,64,106.5,64z M39.5,62h66V22h-66V62z"/>
</g>
<g>
	<path fill="#333333" d="M103.5,61h-5c-0.553,0-1-0.447-1-1s0.447-1,1-1h4v-2c0-0.553,0.447-1,1-1s1,0.447,1,1v3
		C104.5,60.553,104.053,61,103.5,61z"/>
</g>
<g>
	<path fill="#333333" d="M103.5,55c-0.553,0-1-0.447-1-1V41c0-0.553,0.447-1,1-1s1,0.447,1,1v13C104.5,54.553,104.053,55,103.5,55z"
		/>
</g>
<g>
	<path fill="#333333" d="M73.5,67h-1c-0.553,0-1-0.447-1-1s0.447-1,1-1h1c0.553,0,1,0.447,1,1S74.053,67,73.5,67z"/>
</g>
<g>
	<path fill="#333333" d="M86.5,88h-29c-1.104,0-2-0.896-2-2s0.896-2,2-2h29c1.104,0,2,0.896,2,2S87.604,88,86.5,88z"/>
</g>
<g>
	<path fill="#333333" d="M80.571,87.125c-1.104,0-2-0.896-2-2c0-3.377-2.748-6.125-6.125-6.125c-3.377,0-6.125,2.748-6.125,6.125
		c0,1.104-0.896,2-2,2s-2-0.896-2-2C62.321,79.542,66.863,75,72.446,75s10.125,4.542,10.125,10.125
		C82.571,86.229,81.676,87.125,80.571,87.125z"/>
</g>
<g>
	<g>
		<path fill="#333333" d="M165.5,28v56h-39V28H165.5 M165.998,24h-39c-2.209,0-4.498,1.471-4.498,3.68v56
			c0,2.209,2.289,4.32,4.498,4.32h39c2.209,0,3.502-2.111,3.502-4.32v-56C169.5,25.471,168.207,24,165.998,24L165.998,24z"/>
	</g>
	<g>
		<path fill="#333333" d="M160.5,76h-29c-0.553,0-1-0.447-1-1V37c0-0.553,0.447-1,1-1h29c0.553,0,1,0.447,1,1v38
			C161.5,75.553,161.053,76,160.5,76z M132.5,74h27V38h-27V74z"/>
	</g>
	<g>
		<path fill="#333333" d="M134.5,44c-0.553,0-1-0.447-1-1v-3c0-0.553,0.447-1,1-1h7c0.553,0,1,0.447,1,1s-0.447,1-1,1h-6v2
			C135.5,43.553,135.053,44,134.5,44z"/>
	</g>
	<g>
		<path fill="#333333" d="M147.5,41h-3c-0.553,0-1-0.447-1-1s0.447-1,1-1h3c0.553,0,1,0.447,1,1S148.053,41,147.5,41z"/>
	</g>
	<g>
		<path fill="#333333" d="M150.5,33h-9c-0.553,0-1-0.447-1-1s0.447-1,1-1h9c0.553,0,1,0.447,1,1S151.053,33,150.5,33z"/>
	</g>
	<g>
		<path fill="#333333" d="M146.498,81.938c-1.518,0-2.75-1.233-2.75-2.75c0-1.518,1.232-2.75,2.75-2.75s2.75,1.232,2.75,2.75
			C149.248,80.704,148.016,81.938,146.498,81.938z M146.498,78.438c-0.413,0-0.75,0.336-0.75,0.75c0,0.412,0.337,0.75,0.75,0.75
			s0.75-0.338,0.75-0.75C147.248,78.773,146.911,78.438,146.498,78.438z"/>
	</g>
</g>
</svg>
