<?xml version="1.0" encoding="utf-8"?>
<!-- Generator: Adobe Illustrator 16.0.4, SVG Export Plug-In . SVG Version: 6.00 Build 0)  -->
<!DOCTYPE svg PUBLIC "-//W3C//DTD SVG 1.1//EN" "http://www.w3.org/Graphics/SVG/1.1/DTD/svg11.dtd">
<svg version="1.1" id="Layer_1" xmlns="http://www.w3.org/2000/svg" xmlns:xlink="http://www.w3.org/1999/xlink" x="0px" y="0px"
	 width="24px" height="24px" viewBox="0 0 24 24" enable-background="new 0 0 24 24" xml:space="preserve">
<path fill="#40A6D2" d="M8.993,23.867h4.916v-9.535c0-0.473,0.065-0.979,0.194-1.285c0.323-0.946,1.131-1.927,2.489-1.927
	c1.779,0,2.491,1.454,2.491,3.585v9.162H24v-9.807c0-4.869-2.426-7.1-5.66-7.1c-2.619,0-4.236,1.589-4.884,2.637h-0.099
	l-0.227-2.265H8.863c0.064,1.454,0.129,3.211,0.129,5.274L8.993,23.867L8.993,23.867z M2.588,0.131c-1.585,0-2.62,1.116-2.587,2.604
	c-0.033,1.42,1.002,2.569,2.555,2.569c1.618,0,2.653-1.149,2.653-2.569C5.176,1.247,4.173,0.131,2.588,0.131 M5.046,7.333H0.13
	v16.536h4.917L5.046,7.333L5.046,7.333z"/>
</svg>
