<?xml version="1.0" encoding="utf-8"?>
<!-- Generator: Adobe Illustrator 16.0.4, SVG Export Plug-In . SVG Version: 6.00 Build 0)  -->
<!DOCTYPE svg PUBLIC "-//W3C//DTD SVG 1.1//EN" "http://www.w3.org/Graphics/SVG/1.1/DTD/svg11.dtd">
<svg version="1.1" id="Layer_1" xmlns="http://www.w3.org/2000/svg" xmlns:xlink="http://www.w3.org/1999/xlink" x="0px" y="0px"
	 width="24px" height="24px" viewBox="0 0 24 24" enable-background="new 0 0 24 24" xml:space="preserve">
<path fill="#AC5C51" d="M12,0C5.373,0,0,5.513,0,12.305c0,5.438,3.439,10.044,8.207,11.673C8.282,23.995,8.346,24,8.411,24
	c0.445,0,0.616-0.327,0.616-0.611c0-0.293-0.011-1.065-0.016-2.095c-0.45,0.103-0.852,0.146-1.211,0.146
	c-2.309,0-2.833-1.795-2.833-1.795c-0.547-1.42-1.334-1.801-1.334-1.801c-1.045-0.734-0.005-0.755,0.075-0.755
	c0.005,0,0.005,0,0.005,0c1.206,0.106,1.837,1.275,1.837,1.275c0.6,1.05,1.404,1.345,2.122,1.345c0.562,0,1.071-0.182,1.372-0.32
	c0.107-0.793,0.418-1.334,0.761-1.646c-2.663-0.312-5.464-1.366-5.464-6.08c0-1.345,0.466-2.443,1.232-3.3
	C5.448,8.052,5.036,6.798,5.689,5.105c0,0,0.085-0.027,0.268-0.027c0.434,0,1.415,0.166,3.032,1.291
	c0.959-0.273,1.982-0.407,3.005-0.413c1.02,0.006,2.047,0.14,3.006,0.414c1.618-1.125,2.598-1.291,3.032-1.291
	c0.182,0,0.268,0.027,0.268,0.027c0.654,1.693,0.241,2.946,0.118,3.257c0.766,0.863,1.232,1.961,1.232,3.3
	c0,4.726-2.808,5.764-5.48,6.069c0.43,0.379,0.814,1.129,0.814,2.276c0,1.646-0.017,2.974-0.017,3.375
	c0,0.29,0.166,0.616,0.611,0.616c0.063,0,0.139-0.005,0.214-0.021C20.566,22.35,24,17.736,24,12.305C24,5.513,18.627,0,12,0z"/>
</svg>
