<?xml version="1.0" encoding="utf-8"?>
<!-- Generator: Adobe Illustrator 16.0.4, SVG Export Plug-In . SVG Version: 6.00 Build 0)  -->
<!DOCTYPE svg PUBLIC "-//W3C//DTD SVG 1.1//EN" "http://www.w3.org/Graphics/SVG/1.1/DTD/svg11.dtd">
<svg version="1.1" id="Layer_1" xmlns="http://www.w3.org/2000/svg" xmlns:xlink="http://www.w3.org/1999/xlink" x="0px" y="0px"
	 width="24px" height="24px" viewBox="0 0 24 24" enable-background="new 0 0 24 24" xml:space="preserve">
<path fill-rule="evenodd" clip-rule="evenodd" fill="#6FCDEE" d="M5.156,6.506c3.793,1.924,6.999,1.813,6.999,1.813
	s-1.215-4.254,2.541-6.142c3.757-1.887,6.341,1.294,6.341,1.294s0.656-0.181,1.144-0.361c0.488-0.181,1.195-0.503,1.195-0.503
	l-1.158,2.075L24,4.493c0,0-0.22,0.323-0.934,0.98C22.354,6.13,22.06,6.471,22.06,6.471s0.255,5.121-2.431,9.063
	c-2.686,3.943-6.154,6.31-11.196,6.808c-5.04,0.498-8.322-1.554-8.322-1.554s2.204-0.126,3.608-0.666
	c1.405-0.54,3.425-1.961,3.425-1.961s-2.873-0.888-3.904-1.887s-1.289-1.591-1.289-1.591l2.835-0.037c0,0-2.983-1.591-3.83-2.849
	C0.111,10.54,0,9.319,0,9.319l2.18,0.885c0,0-1.812-2.476-2.069-4.399c-0.258-1.924,0.331-2.96,0.331-2.96S1.362,4.583,5.156,6.506"
	/>
</svg>
