<?xml version="1.0" encoding="utf-8"?>
<!-- Generator: Adobe Illustrator 16.0.4, SVG Export Plug-In . SVG Version: 6.00 Build 0)  -->
<!DOCTYPE svg PUBLIC "-//W3C//DTD SVG 1.1//EN" "http://www.w3.org/Graphics/SVG/1.1/DTD/svg11.dtd">
<svg version="1.1" id="Layer_1" xmlns="http://www.w3.org/2000/svg" xmlns:xlink="http://www.w3.org/1999/xlink" x="0px" y="0px"
	 width="20px" height="20px" viewBox="0 0 20 20" enable-background="new 0 0 20 20" xml:space="preserve">
<g>
	<path fill="#FFFFFF" d="M0.25,19.738v-19.5h8.488v1.745H1.971v16.011h16.036v-6.643h1.743v8.387H0.25z M8.669,10.111l8.118-8.119
		h-4.219V0.25h7.182v7.181h-1.743V3.212l-8.118,8.119L8.669,10.111z"/>
	<path fill="#FFFFFF" d="M19.5,0.5v6.681h-1.243V2.609l-8.368,8.369l-0.866-0.866l8.368-8.369h-4.572V0.5H19.5 M8.489,0.489v1.244
		H1.721v16.511h16.536v-6.643H19.5v7.886h-19V0.489H8.489 M20,0h-0.5h-6.682h-0.5v0.5v1.243v0.5h0.5h3.365L8.669,9.758l-0.354,0.354
		l0.354,0.354l0.866,0.866l0.354,0.354l0.354-0.354l7.515-7.515v3.365v0.5h0.5H19.5H20v-0.5V0.5V0L20,0z M8.988-0.012h-0.5H0.5H0
		v0.5v18.999v0.501h0.5h19H20v-0.501v-7.886v-0.501h-0.5h-1.243h-0.5v0.501v6.142H2.221V2.233h6.268h0.5v-0.5V0.489V-0.012
		L8.988-0.012z"/>
</g>
</svg>
