<?xml version="1.0" encoding="utf-8"?>
<!-- Generator: Adobe Illustrator 16.0.4, SVG Export Plug-In . SVG Version: 6.00 Build 0)  -->
<!DOCTYPE svg PUBLIC "-//W3C//DTD SVG 1.1//EN" "http://www.w3.org/Graphics/SVG/1.1/DTD/svg11.dtd">
<svg version="1.1" id="Layer_1" xmlns="http://www.w3.org/2000/svg" xmlns:xlink="http://www.w3.org/1999/xlink" x="0px" y="0px"
	 width="22px" height="38px" viewBox="0 0 22 38" enable-background="new 0 0 22 38" xml:space="preserve">
<path fill="#FFFFFF" d="M11,37.5c-5.79,0-10.5-4.629-10.5-10.318V10.819C0.5,5.129,5.21,0.5,11,0.5c5.789,0,10.5,4.629,10.5,10.319
	V27.18C21.5,32.871,16.789,37.5,11,37.5z M11,2.81c-4.503,0-8.167,3.593-8.167,8.01v16.362c0,4.416,3.664,8.01,8.167,8.01
	c4.504,0,8.168-3.594,8.168-8.01V10.819C19.168,6.403,15.504,2.81,11,2.81z"/>
<path fill="#FFFFFF" d="M11,1c5.523,0,10,4.396,10,9.819V27.18C21,32.604,16.523,37,11,37c-5.522,0-10-4.396-10-9.818V10.819
	C1,5.396,5.478,1,11,1 M11,35.691c4.779,0,8.668-3.818,8.668-8.512V10.819c0-4.692-3.889-8.51-8.668-8.51
	c-4.778,0-8.667,3.817-8.667,8.51V27.18C2.333,31.873,6.222,35.691,11,35.691 M11,0C4.935,0,0,4.854,0,10.819V27.18
	C0,33.146,4.935,38,11,38c6.066,0,11-4.854,11-10.818V10.819C22,4.854,17.066,0,11,0L11,0z M11,34.691
	c-4.228,0-7.667-3.369-7.667-7.512V10.819c0-4.141,3.439-7.51,7.667-7.51c4.229,0,7.668,3.369,7.668,7.51V27.18
	C18.668,31.322,15.229,34.691,11,34.691L11,34.691z"/>
<circle fill="#FFFFFF" cx="11" cy="11.025" r="2"/>
</svg>
