<?xml version="1.0" encoding="utf-8"?>
<!-- Generator: Adobe Illustrator 16.0.4, SVG Export Plug-In . SVG Version: 6.00 Build 0)  -->
<!DOCTYPE svg PUBLIC "-//W3C//DTD SVG 1.1//EN" "http://www.w3.org/Graphics/SVG/1.1/DTD/svg11.dtd">
<svg version="1.1" id="Twitter_w_x2F__circle" xmlns="http://www.w3.org/2000/svg" xmlns:xlink="http://www.w3.org/1999/xlink"
	 x="0px" y="0px" width="24px" height="24px" viewBox="0 0 24 24" enable-background="new 0 0 24 24" xml:space="preserve">
<path fill="#FFFFFF" d="M12,0.48C5.638,0.48,0.48,5.638,0.48,12S5.638,23.52,12,23.52S23.52,18.362,23.52,12S18.362,0.48,12,0.48z
	 M16.686,9.917c0.006,0.098,0.006,0.197,0.006,0.292c0,3-2.281,6.458-6.454,6.458c-1.282,0-2.475-0.374-3.478-1.021
	c0.176,0.021,0.357,0.03,0.541,0.03c1.063,0,2.041-0.361,2.817-0.971c-0.992-0.019-1.83-0.675-2.119-1.574
	c0.138,0.024,0.28,0.04,0.426,0.04c0.207,0,0.408-0.028,0.598-0.08c-1.038-0.209-1.821-1.125-1.821-2.225V10.84
	c0.306,0.169,0.657,0.272,1.029,0.284c-0.61-0.408-1.009-1.102-1.009-1.89c0-0.415,0.111-0.806,0.307-1.141
	c1.12,1.373,2.79,2.275,4.676,2.373c-0.04-0.167-0.059-0.34-0.059-0.519c0-1.251,1.016-2.269,2.27-2.269
	c0.651,0,1.242,0.276,1.656,0.717c0.517-0.103,1.002-0.29,1.439-0.551c-0.17,0.529-0.528,0.975-0.997,1.256
	c0.46-0.056,0.896-0.177,1.303-0.358C17.514,9.197,17.129,9.598,16.686,9.917z"/>
</svg>
