<?xml version="1.0" encoding="utf-8"?>
<!-- Generator: Adobe Illustrator 16.0.4, SVG Export Plug-In . SVG Version: 6.00 Build 0)  -->
<!DOCTYPE svg PUBLIC "-//W3C//DTD SVG 1.1//EN" "http://www.w3.org/Graphics/SVG/1.1/DTD/svg11.dtd">
<svg version="1.1" id="LinkedIn_w_x2F__circle" xmlns="http://www.w3.org/2000/svg" xmlns:xlink="http://www.w3.org/1999/xlink"
	 x="0px" y="0px" width="24px" height="24px" viewBox="0 0 24 24" enable-background="new 0 0 24 24" xml:space="preserve">
<path fill="#FFFFFF" d="M12,0.48C5.638,0.48,0.48,5.638,0.48,12S5.638,23.52,12,23.52S23.52,18.362,23.52,12S18.362,0.48,12,0.48z
	 M9.18,16.775H6.847V9.268H9.18V16.775z M7.999,8.346c-0.737,0-1.213-0.522-1.213-1.168c0-0.659,0.491-1.165,1.243-1.165
	S9.242,6.52,9.257,7.178C9.257,7.824,8.782,8.346,7.999,8.346z M17.7,16.775h-2.333v-4.161c0-0.968-0.338-1.626-1.182-1.626
	c-0.645,0-1.027,0.445-1.197,0.874c-0.062,0.153-0.078,0.369-0.078,0.583v4.328h-2.333v-5.112c0-0.937-0.03-1.721-0.061-2.395h2.027
	l0.106,1.042h0.046c0.309-0.489,1.061-1.212,2.319-1.212c1.534,0,2.686,1.028,2.686,3.239V16.775z"/>
</svg>
