<?xml version="1.0" encoding="utf-8"?>
<!-- Generator: Adobe Illustrator 16.0.4, SVG Export Plug-In . SVG Version: 6.00 Build 0)  -->
<!DOCTYPE svg PUBLIC "-//W3C//DTD SVG 1.1//EN" "http://www.w3.org/Graphics/SVG/1.1/DTD/svg11.dtd">
<svg version="1.1" xmlns="http://www.w3.org/2000/svg" xmlns:xlink="http://www.w3.org/1999/xlink" x="0px" y="0px" width="24px"
	 height="24px" viewBox="0 0 24 24" enable-background="new 0 0 24 24" xml:space="preserve">
<g id="Github_w_x2F__circle">
	<path fill="#FFFFFF" d="M12,0.48C5.638,0.48,0.48,5.638,0.48,12S5.638,23.52,12,23.52S23.52,18.362,23.52,12S18.362,0.48,12,0.48z
		 M19,12.173c0,3.092-2.002,5.714-4.783,6.64c-0.355,0.068-0.48-0.149-0.48-0.335c0-0.23,0.009-0.984,0.009-1.922
		c0-0.65-0.225-1.079-0.476-1.294c1.56-0.175,3.193-0.766,3.193-3.455c0-0.765-0.269-1.389-0.718-1.878
		c0.072-0.178,0.312-0.889-0.069-1.853c0,0-0.587-0.188-1.924,0.718C13.192,8.639,12.596,8.561,12,8.559
		c-0.595,0.002-1.195,0.08-1.752,0.235C8.911,7.889,8.323,8.077,8.323,8.077c-0.381,0.964-0.14,1.675-0.069,1.853
		c-0.447,0.489-0.72,1.114-0.72,1.878c0,2.682,1.634,3.282,3.188,3.46c-0.2,0.175-0.381,0.482-0.444,0.935
		c-0.398,0.179-1.413,0.488-2.037-0.581c0,0-0.369-0.671-1.072-0.722c0,0-0.684-0.009-0.048,0.426c0,0,0.459,0.216,0.778,1.023
		c0,0,0.411,1.362,2.358,0.939c0.003,0.583,0.009,1.024,0.009,1.19c0,0.185-0.127,0.4-0.478,0.336C7.005,17.89,5,15.267,5,12.173
		c0-3.865,3.135-7,7-7C15.866,5.173,19,8.308,19,12.173z"/>
</g>
<g id="Layer_2">
</g>
</svg>
