<?xml version="1.0" encoding="utf-8"?>
<!-- Generator: Adobe Illustrator 16.0.4, SVG Export Plug-In . SVG Version: 6.00 Build 0)  -->
<!DOCTYPE svg PUBLIC "-//W3C//DTD SVG 1.1//EN" "http://www.w3.org/Graphics/SVG/1.1/DTD/svg11.dtd">
<svg version="1.1" id="Layer_1" xmlns="http://www.w3.org/2000/svg" xmlns:xlink="http://www.w3.org/1999/xlink" x="0px" y="0px"
	 width="260px" height="548.495px" viewBox="0 0 260 548.495" enable-background="new 0 0 260 548.495" xml:space="preserve">
<g id="Layer_1_1_">
	<line fill="none" stroke="#000000" stroke-width="0.5" x1="6.821" y1="501.395" x2="3.229" y2="501.395"/>
	<line fill="none" stroke="#000000" stroke-width="0.5" x1="3.229" y1="496.492" x2="6.821" y2="496.492"/>
	<line fill="none" stroke="#000000" stroke-width="0.5" x1="6.821" y1="54.144" x2="3.229" y2="54.144"/>
	<line fill="none" stroke="#000000" stroke-width="0.5" x1="3.229" y1="49.243" x2="6.821" y2="49.243"/>
	<line fill="none" stroke="#000000" stroke-width="0.5" x1="259.98" y1="54.144" x2="256.39" y2="54.144"/>
	<line fill="none" stroke="#000000" stroke-width="0.5" x1="256.39" y1="49.243" x2="259.98" y2="49.243"/>
	<g>
		<path fill="#E5E5E5" d="M131.616,484.044c-12.943,0-23.474,10.528-23.474,23.473c0,12.941,10.531,23.47,23.474,23.47
			c12.941,0,23.471-10.528,23.471-23.47C155.087,494.574,144.558,484.044,131.616,484.044z"/>
		<path fill="#E5E5E5" d="M221.826,2.896h-5.193V0.289c0,0-0.348-0.289-1.566-0.289c-1.219,0-36.833,0-38.051,0
			c-1.218,0-1.567,0.289-1.567,0.289v2.607H41.404c-2.624,0-5.188,0.27-7.667,0.779C16.384,7.251,3.229,22.7,3.229,41.071v36.495
			H0.289c0,0-0.289,0.349-0.289,1.567s0,19.937,0,21.154c0,1.218,0.289,1.567,0.289,1.567h2.941v27.552H0.289
			c0,0-0.289,0.349-0.289,1.567c0,1.218,0,13.792,0,15.01c0,1.22,0.289,1.568,0.289,1.568h2.941v26.973H0.289
			c0,0-0.289,0.35-0.289,1.568c0,1.218,0,13.792,0,15.01c0,1.22,0.289,1.567,0.289,1.567h2.941V510.32
			c0,18.371,13.154,33.82,30.507,37.396c2.479,0.51,5.043,0.778,7.667,0.778h180.422c20.997,0,38.174-17.179,38.174-38.175V41.073
			C260.003,20.075,242.823,2.896,221.826,2.896z M131.616,532.524c-13.791,0-25.009-11.219-25.009-25.006
			c0-13.792,11.22-25.009,25.009-25.009c13.791,0,25.007,11.218,25.007,25.009C156.624,521.306,145.405,532.524,131.616,532.524z
			 M256.39,501.395h3.591H256.39z M256.39,496.492h3.591H256.39z"/>
	</g>
</g>
</svg>
