<?xml version="1.0" encoding="utf-8"?>
<!-- Generator: Adobe Illustrator 16.0.4, SVG Export Plug-In . SVG Version: 6.00 Build 0)  -->
<!DOCTYPE svg PUBLIC "-//W3C//DTD SVG 1.1//EN" "http://www.w3.org/Graphics/SVG/1.1/DTD/svg11.dtd">
<svg version="1.1" id="Layer_1" xmlns="http://www.w3.org/2000/svg" xmlns:xlink="http://www.w3.org/1999/xlink" x="0px" y="0px"
	 width="36px" height="24px" viewBox="0 0 36 24" enable-background="new 0 0 36 24" xml:space="preserve">
<g>
	<g>
		<path fill="#333333" d="M15,0h-2H0l3,4h10v16H5l3,4h5h2c1.094,0,2-0.895,2-2v-2V4V2C17,0.896,16.094,0,15,0z M33,4l3-4H23h-2
			c-1.094,0-2,0.896-2,2v2v16v2c0,1.105,0.906,2,2,2h2h5l3-4h-8V4H33z"/>
	</g>
</g>
</svg>
